<!DOCTYPE svg PUBLIC "-//W3C//DTD SVG 1.1//EN" "http://www.w3.org/Graphics/SVG/1.1/DTD/svg11.dtd">
<!-- Uploaded to: SVG Repo, www.svgrepo.com, Transformed by: SVG Repo Mixer Tools -->
<svg version="1.1" id="Icons" xmlns="http://www.w3.org/2000/svg" xmlns:xlink="http://www.w3.org/1999/xlink" viewBox="0 0 32 32" xml:space="preserve" width="800px" height="800px" fill="#000000">
<g id="SVGRepo_bgCarrier" stroke-width="0"/>
<g id="SVGRepo_tracerCarrier" stroke-linecap="round" stroke-linejoin="round"/>
<g id="SVGRepo_iconCarrier"> <style type="text/css"> .st0{fill:none;stroke:#ffffff;stroke-width:2;stroke-linecap:round;stroke-linejoin:round;stroke-miterlimit:10;} </style> <path class="st0" d="M26,15H6c-1.1,0-2-0.9-2-2v0c0-1.1,0.9-2,2-2h20c1.1,0,2,0.9,2,2v0C28,14.1,27.1,15,26,15z"/> <polygon class="st0" points="24,31 8,31 6,15 26,15 "/> <line class="st0" x1="20" y1="15" x2="19" y2="31"/> <line class="st0" x1="13" y1="31" x2="12" y2="15"/> <path class="st0" d="M25.8,11c0.1-0.3,0.2-0.7,0.2-1c0-1.4-0.9-2.5-2.2-2.9C23.9,6.8,24,6.4,24,6c0-1.7-1.3-3-3-3 c-0.8,0-1.5,0.3-2,0.8C18.9,2.2,17.6,1,16,1s-2.9,1.2-3,2.8C12.5,3.3,11.8,3,11,3C9.3,3,8,4.3,8,6c0,0.4,0.1,0.8,0.2,1.1 C6.9,7.5,6,8.6,6,10c0,0.4,0.1,0.7,0.2,1"/> </g>
</svg>