<?xml version="1.0" encoding="utf-8"?>

<!DOCTYPE svg PUBLIC "-//W3C//DTD SVG 1.1//EN" "http://www.w3.org/Graphics/SVG/1.1/DTD/svg11.dtd">
<!-- Uploaded to: SVG Repo, www.svgrepo.com, Generator: SVG Repo Mixer Tools -->
<svg version="1.1" id="_x32_" xmlns="http://www.w3.org/2000/svg" xmlns:xlink="http://www.w3.org/1999/xlink" 
	 width="800px" height="800px" viewBox="0 0 512 512"  xml:space="preserve">
<style type="text/css">
<![CDATA[
	.st0{fill:#ffffff;}
]]>
</style>
<g>
	<path class="st0" d="M485.234,69.25H26.766C11.984,69.25,0,81.234,0,96v319.984c0,14.797,11.984,26.766,26.766,26.766h458.469
		c14.781,0,26.766-11.969,26.766-26.766V96C512,81.234,500.016,69.25,485.234,69.25z M383.594,373.828
		c0,8.5-6.906,15.422-15.422,15.422H66.844c-8.531,0-15.438-6.922-15.438-15.422V144.469c0-8.516,6.906-15.422,15.438-15.422
		h301.328c8.516,0,15.422,6.906,15.422,15.422V373.828z M473.188,286.438h-45.125v-45.125h45.125V286.438z M449.047,186.766
		c-13.906,0-25.172-11.281-25.172-25.188c0-13.922,11.266-25.188,25.172-25.188s25.172,11.266,25.172,25.188
		C474.219,175.484,462.953,186.766,449.047,186.766z"/>
	<path class="st0" d="M171.578,201.078c-0.672-0.406-1.531-0.422-2.234-0.031c-0.672,0.391-1.094,1.125-1.094,1.922v56.172v56.188
		c0,0.797,0.422,1.531,1.094,1.922c0.703,0.391,1.563,0.375,2.234-0.031l94.109-56.172c0.672-0.391,1.078-1.125,1.078-1.906
		c0-0.766-0.406-1.5-1.078-1.891L171.578,201.078z"/>
</g>
</svg>